<svg width="848" height="207" viewBox="0 0 848 207" fill="none" xmlns="http://www.w3.org/2000/svg">
<path d="M0.359375 203H51.8281V84.5938H52.8125L134.375 203H177.688V0.078125H126.219V117.219H125.234L44.0938 0.078125H0.359375V203ZM278.797 206.234C327.031 206.234 357.125 177.125 357.125 126.5V126.219C357.125 76.2969 326.469 46.625 278.797 46.625C231.266 46.625 200.469 76.5781 200.469 126.219V126.5C200.469 176.984 230.281 206.234 278.797 206.234ZM278.938 168.406C261.641 168.406 251.094 153.5 251.094 126.5V126.219C251.094 99.7812 261.922 84.4531 278.797 84.4531C295.672 84.4531 306.641 99.7812 306.641 126.219V126.5C306.641 153.359 295.953 168.406 278.938 168.406ZM450.078 206.234C498.312 206.234 528.406 177.125 528.406 126.5V126.219C528.406 76.2969 497.75 46.625 450.078 46.625C402.547 46.625 371.75 76.5781 371.75 126.219V126.5C371.75 176.984 401.562 206.234 450.078 206.234ZM450.219 168.406C432.922 168.406 422.375 153.5 422.375 126.5V126.219C422.375 99.7812 433.203 84.4531 450.078 84.4531C466.953 84.4531 477.922 99.7812 477.922 126.219V126.5C477.922 153.359 467.234 168.406 450.219 168.406ZM548.797 203H598.578V155.891L607.578 145.062L644.844 203H702.219L644.984 115.391L698.984 49.8594H643.438L599.562 107.938H598.578V0.078125H548.797V203ZM776.469 206.234C818.516 206.234 847.203 186.125 847.203 154.484V154.344C847.203 131.422 833.141 118.766 800.656 112.297L773.656 106.953C759.172 104 754.531 100.062 754.531 93.4531V93.3125C754.531 85.2969 762.406 80.2344 774.641 80.2344C788.422 80.2344 796.156 87.6875 797.281 96.6875L797.422 97.8125H842.984L842.844 96.6875C842.422 69.2656 818.938 46.625 774.641 46.625C732.734 46.625 706.578 65.6094 706.578 96.125V96.2656C706.578 119.609 722.188 135.219 752.141 140.984L779.141 146.328C792.781 149.141 797.703 152.938 797.703 159.828V159.969C797.703 167.844 789.688 172.625 776.469 172.625C761.844 172.625 753.969 166.578 751.578 156.172L751.297 155.047H702.922L703.062 156.312C706.438 186.125 730.906 206.234 776.469 206.234Z" fill="black"/>
</svg>
