<svg width="800" height="800" viewBox="0 0 800 800" fill="none" xmlns="http://www.w3.org/2000/svg">
<rect width="800" height="800" rx="128" fill="#E5E5E5"/>
<rect x="138" y="117" width="244" height="566" rx="8" fill="white" stroke="black" stroke-width="16"/>
<rect x="418" y="220" width="244" height="463" rx="8" fill="white" stroke="black" stroke-width="16"/>
<rect x="278" y="366" width="244" height="317" rx="8" fill="white" stroke="black" stroke-width="16"/>
<rect x="178" y="156" width="64" height="64" rx="8" fill="white" stroke="black" stroke-width="16"/>
<rect x="318" y="406" width="64" height="64" rx="8" fill="white" stroke="black" stroke-width="16"/>
<rect x="318" y="511" width="64" height="64" rx="8" fill="white" stroke="black" stroke-width="16"/>
<rect x="178" y="261" width="64" height="64" rx="8" fill="white" stroke="black" stroke-width="16"/>
<rect x="458" y="261" width="64" height="64" rx="8" fill="white" stroke="black" stroke-width="16"/>
<rect x="178" y="366" width="64" height="64" rx="8" fill="white" stroke="black" stroke-width="16"/>
<rect x="178" y="471" width="64" height="64" rx="8" fill="white" stroke="black" stroke-width="16"/>
<rect x="278" y="156" width="64" height="64" rx="8" fill="white" stroke="black" stroke-width="16"/>
<rect x="418" y="406" width="64" height="64" rx="8" fill="white" stroke="black" stroke-width="16"/>
<rect x="418" y="511" width="64" height="64" rx="8" fill="white" stroke="black" stroke-width="16"/>
<rect x="278" y="261" width="64" height="64" rx="8" fill="white" stroke="black" stroke-width="16"/>
<rect x="558" y="261" width="64" height="64" rx="8" fill="white" stroke="black" stroke-width="16"/>
<rect x="558" y="366" width="64" height="64" rx="8" fill="white" stroke="black" stroke-width="16"/>
<rect x="558" y="471" width="64" height="64" rx="8" fill="white" stroke="black" stroke-width="16"/>
</svg>
